<svg xmlns="http://www.w3.org/2000/svg" xmlns:xlink="http://www.w3.org/1999/xlink" version="1.1" data-diagram-type="SEQUENCE" style="width:1249px;height:1790px;background:#FFFFFF;" width="1249px" height="1790px" viewBox="0 0 1249 1790" zoomAndPan="magnify" preserveAspectRatio="none" contentStyleType="text/css"><?plantuml 1.2026.8?><defs/><g font-family="sans-serif" lengthAdjust="spacing"><g class="title" data-source-line="1"><text x="422.938" y="29.075" fill="#000" font-size="14" textLength="401.358" font-weight="700">D04 - Integration through existing frame and UID publication</text></g><rect x="58.965" y="92.303" width="1107.909" height="431.378" fill="none" style="stroke:#000;stroke-width:1.5;"/><rect x="883.949" y="868.427" width="191.412" height="260.665" fill="none" style="stroke:#000;stroke-width:1.5;"/><g><title>Existing world task</title><rect x="71.465" y="80.303" width="8" height="1666.578" fill="#000" fill-opacity="0"/><line x1="74.965" y1="80.303" x2="74.965" y2="1746.88" style="stroke:#181818;stroke-width:0.5;stroke-dasharray:5,5;"/></g><g><title>A. DTAL builder.cache</title><rect x="223.465" y="80.303" width="8" height="1666.578" fill="#000" fill-opacity="0"/><line x1="226.965" y1="80.303" x2="226.965" y2="1746.88" style="stroke:#181818;stroke-width:0.5;stroke-dasharray:5,5;"/></g><g><title>Source producer tasks</title><rect x="387.533" y="80.303" width="8" height="1666.578" fill="#000" fill-opacity="0"/><line x1="391.033" y1="80.303" x2="391.033" y2="1746.88" style="stroke:#181818;stroke-width:0.5;stroke-dasharray:5,5;"/></g><g><title>Existing view.frame task</title><rect x="556.646" y="80.303" width="8" height="1666.578" fill="#000" fill-opacity="0"/><line x1="560.146" y1="80.303" x2="560.146" y2="1746.88" style="stroke:#181818;stroke-width:0.5;stroke-dasharray:5,5;"/></g><g><title>Existing LightManager</title><rect x="724.987" y="80.303" width="8" height="1666.578" fill="#000" fill-opacity="0"/><line x1="728.487" y1="80.303" x2="728.487" y2="1746.88" style="stroke:#181818;stroke-width:0.5;stroke-dasharray:5,5;"/></g><g><title>Existing ClusterLightLists</title><rect x="896.449" y="80.303" width="8" height="1666.578" fill="#000" fill-opacity="0"/><line x1="899.949" y1="80.303" x2="899.949" y2="1746.88" style="stroke:#181818;stroke-width:0.5;stroke-dasharray:5,5;"/></g><g><title>Existing RHI . GPU</title><rect x="1147.374" y="80.303" width="8" height="1666.578" fill="#000" fill-opacity="0"/><line x1="1150.874" y1="80.303" x2="1150.874" y2="1746.88" style="stroke:#181818;stroke-width:0.5;stroke-dasharray:5,5;"/></g><rect x="10" y="48.151" width="129.931" height="31.151" fill="#E2E2F0" style="stroke:#181818;stroke-width:0.5;" rx="2.5" ry="2.5"/><text x="17" y="69.227" fill="#000" font-size="14" textLength="115.931">Existing world task</text><rect x="149.931" y="48.151" width="154.068" height="31.151" fill="#E2E2F0" style="stroke:#181818;stroke-width:0.5;" rx="2.5" ry="2.5"/><text x="156.931" y="69.227" fill="#000" font-size="14" textLength="140.068">A: DTAL builder/cache</text><rect x="313.999" y="48.151" width="154.068" height="31.151" fill="#E2E2F0" style="stroke:#181818;stroke-width:0.5;" rx="2.5" ry="2.5"/><text x="320.999" y="69.227" fill="#000" font-size="14" textLength="140.068">Source producer tasks</text><rect x="478.067" y="48.151" width="164.158" height="31.151" fill="#E2E2F0" style="stroke:#181818;stroke-width:0.5;" rx="2.5" ry="2.5"/><text x="485.067" y="69.227" fill="#000" font-size="14" textLength="150.158">Existing view/frame task</text><rect x="652.226" y="48.151" width="152.523" height="31.151" fill="#E2E2F0" style="stroke:#181818;stroke-width:0.5;" rx="2.5" ry="2.5"/><text x="659.226" y="69.227" fill="#000" font-size="14" textLength="138.523">Existing LightManager</text><rect x="814.749" y="48.151" width="170.399" height="31.151" fill="#E2E2F0" style="stroke:#181818;stroke-width:0.5;" rx="2.5" ry="2.5"/><text x="821.749" y="69.227" fill="#000" font-size="14" textLength="156.399">Existing ClusterLightLists</text><rect x="1084.36" y="48.151" width="133.027" height="31.151" fill="#E2E2F0" style="stroke:#181818;stroke-width:0.5;" rx="2.5" ry="2.5"/><text x="1091.36" y="69.227" fill="#000" font-size="14" textLength="119.027">Existing RHI / GPU</text><rect x="10" y="1746.88" width="129.931" height="31.151" fill="#E2E2F0" style="stroke:#181818;stroke-width:0.5;" rx="2.5" ry="2.5"/><text x="17" y="1767.956" fill="#000" font-size="14" textLength="115.931">Existing world task</text><rect x="149.931" y="1746.88" width="154.068" height="31.151" fill="#E2E2F0" style="stroke:#181818;stroke-width:0.5;" rx="2.5" ry="2.5"/><text x="156.931" y="1767.956" fill="#000" font-size="14" textLength="140.068">A: DTAL builder/cache</text><rect x="313.999" y="1746.88" width="154.068" height="31.151" fill="#E2E2F0" style="stroke:#181818;stroke-width:0.5;" rx="2.5" ry="2.5"/><text x="320.999" y="1767.956" fill="#000" font-size="14" textLength="140.068">Source producer tasks</text><rect x="478.067" y="1746.88" width="164.158" height="31.151" fill="#E2E2F0" style="stroke:#181818;stroke-width:0.5;" rx="2.5" ry="2.5"/><text x="485.067" y="1767.956" fill="#000" font-size="14" textLength="150.158">Existing view/frame task</text><rect x="652.226" y="1746.88" width="152.523" height="31.151" fill="#E2E2F0" style="stroke:#181818;stroke-width:0.5;" rx="2.5" ry="2.5"/><text x="659.226" y="1767.956" fill="#000" font-size="14" textLength="138.523">Existing LightManager</text><rect x="814.749" y="1746.88" width="170.399" height="31.151" fill="#E2E2F0" style="stroke:#181818;stroke-width:0.5;" rx="2.5" ry="2.5"/><text x="821.749" y="1767.956" fill="#000" font-size="14" textLength="156.399">Existing ClusterLightLists</text><rect x="1084.36" y="1746.88" width="133.027" height="31.151" fill="#E2E2F0" style="stroke:#181818;stroke-width:0.5;" rx="2.5" ry="2.5"/><text x="1091.36" y="1767.956" fill="#000" font-size="14" textLength="119.027">Existing RHI / GPU</text><path d="M58.965,92.303 L124.176,92.303 L124.176,100.229 L114.176,110.229 L58.965,110.229 L58.965,92.303" style="stroke:#000;stroke-width:1.5;" fill="#EEE"/><rect x="58.965" y="92.303" width="1107.909" height="431.378" fill="none" style="stroke:#000;stroke-width:1.5;"/><text x="73.965" y="106.373" fill="#000" font-size="13" textLength="20.211" font-weight="700">opt</text><text x="139.176" y="105.362" fill="#000" font-size="11" textLength="161.965" font-weight="700">[DTAL regeneration requested]</text><polygon points="214.965,217.787,224.965,221.787,214.965,225.787,218.965,221.787" fill="#181818" style="stroke:#181818;stroke-width:1;stroke-linejoin:miter;stroke-miterlimit:10;"/><line x1="74.965" y1="221.787" x2="220.965" y2="221.787" style="stroke:#181818;stroke-width:1;"/><text x="81.965" y="177.115" fill="#000" font-size="13" font-weight="700">1</text><text x="93.195" y="137.299" fill="#000" font-size="13" textLength="43.361">capture</text><text x="93.195" y="153.225" fill="#000" font-size="13" textLength="24.572">safe</text><text x="93.195" y="169.151" fill="#000" font-size="13" textLength="38.302">inputs;</text><text x="93.195" y="185.078" fill="#000" font-size="13" textLength="27.466">build</text><text x="93.195" y="201.004" fill="#000" font-size="13" textLength="58.519">temporary</text><text x="93.195" y="216.93" fill="#000" font-size="13" textLength="25.302">data</text><line x1="226.965" y1="331.344" x2="268.965" y2="331.344" style="stroke:#181818;stroke-width:1;"/><line x1="268.965" y1="331.344" x2="268.965" y2="344.344" style="stroke:#181818;stroke-width:1;"/><line x1="227.965" y1="344.344" x2="268.965" y2="344.344" style="stroke:#181818;stroke-width:1;"/><polygon points="237.965,340.344,227.965,344.344,237.965,348.344,233.965,344.344" fill="#181818" style="stroke:#181818;stroke-width:1;stroke-linejoin:miter;stroke-miterlimit:10;"/><text x="233.965" y="286.672" fill="#000" font-size="13" font-weight="700">2</text><text x="245.195" y="246.856" fill="#000" font-size="13" textLength="44.808">validate</text><text x="245.195" y="262.783" fill="#000" font-size="13" textLength="57.802">geometry,</text><text x="245.195" y="278.709" fill="#000" font-size="13" textLength="36.112">PDFs,</text><text x="245.195" y="294.635" fill="#000" font-size="13" textLength="46.262">budgets</text><text x="245.195" y="310.562" fill="#000" font-size="13" textLength="21.69">and</text><text x="245.195" y="326.488" fill="#000" font-size="13" textLength="44.795">revision</text><polygon points="716.487,418.049,726.487,422.049,716.487,426.049,720.487,422.049" fill="#181818" style="stroke:#181818;stroke-width:1;stroke-linejoin:miter;stroke-miterlimit:10;"/><line x1="226.965" y1="422.049" x2="722.487" y2="422.049" style="stroke:#181818;stroke-width:1;"/><text x="233.965" y="393.303" fill="#000" font-size="13" font-weight="700">3</text><text x="245.195" y="369.414" fill="#000" font-size="13" textLength="33.236">install</text><text x="245.195" y="385.34" fill="#000" font-size="13" textLength="52.749">complete</text><text x="245.195" y="401.267" fill="#000" font-size="13" textLength="33.249">group</text><text x="245.195" y="417.193" fill="#000" font-size="13" textLength="61.439">generation</text><polygon points="1138.874,511.681,1148.874,515.681,1138.874,519.681,1142.874,515.681" fill="#181818" style="stroke:#181818;stroke-width:1;stroke-linejoin:miter;stroke-miterlimit:10;"/><line x1="728.487" y1="515.681" x2="1144.874" y2="515.681" style="stroke:#181818;stroke-width:1;"/><text x="735.487" y="478.972" fill="#000" font-size="13" font-weight="700">4</text><text x="746.717" y="447.119" fill="#000" font-size="13" textLength="71.538">replacement</text><text x="746.717" y="463.045" fill="#000" font-size="13" textLength="37.578">copies</text><text x="784.295" y="463.045" fill="#000" font-size="13"> </text><text x="787.907" y="463.045" fill="#000" font-size="13">/</text><text x="746.717" y="478.972" fill="#000" font-size="13" textLength="63.578">descriptors</text><text x="746.717" y="494.898" fill="#000" font-size="13">/</text><text x="750.329" y="494.898" fill="#000" font-size="13"> </text><text x="753.941" y="494.898" fill="#000" font-size="13" textLength="24.572">safe</text><text x="746.717" y="510.824" fill="#000" font-size="13" textLength="58.519">retirement</text><polygon points="548.146,603.386,558.146,607.386,548.146,611.386,552.146,607.386" fill="#181818" style="stroke:#181818;stroke-width:1;stroke-linejoin:miter;stroke-miterlimit:10;"/><line x1="391.033" y1="607.386" x2="554.146" y2="607.386" style="stroke:#181818;stroke-width:1;"/><text x="398.033" y="578.64" fill="#000" font-size="13" font-weight="700">5</text><text x="409.263" y="554.75" fill="#000" font-size="13" textLength="59.979">completed</text><text x="409.263" y="570.677" fill="#000" font-size="13" textLength="39.019">source</text><text x="409.263" y="586.603" fill="#000" font-size="13" textLength="51.308">producer</text><text x="409.263" y="602.529" fill="#000" font-size="13" textLength="38.289">results</text><polygon points="548.146,649.238,558.146,653.238,548.146,657.238,552.146,653.238" fill="#181818" style="stroke:#181818;stroke-width:1;stroke-linejoin:miter;stroke-miterlimit:10;"/><line x1="74.965" y1="653.238" x2="554.146" y2="653.238" style="stroke:#181818;stroke-width:1;"/><text x="81.965" y="640.419" fill="#000" font-size="13" font-weight="700">6</text><text x="93.195" y="632.456" fill="#000" font-size="13" textLength="31.065">world</text><text x="124.261" y="632.456" fill="#000" font-size="13"> </text><text x="127.873" y="632.456" fill="#000" font-size="13" textLength="25.302">data</text><text x="93.195" y="648.382" fill="#000" font-size="13" textLength="32.519">ready</text><polygon points="716.487,742.87,726.487,746.87,716.487,750.87,720.487,746.87" fill="#181818" style="stroke:#181818;stroke-width:1;stroke-linejoin:miter;stroke-miterlimit:10;"/><line x1="560.146" y1="746.87" x2="722.487" y2="746.87" style="stroke:#181818;stroke-width:1;"/><text x="567.146" y="710.161" fill="#000" font-size="13" font-weight="700">7</text><text x="578.376" y="678.308" fill="#000" font-size="13" textLength="40.46">current</text><text x="578.376" y="694.234" fill="#000" font-size="13" textLength="52.762">accepted</text><text x="578.376" y="710.161" fill="#000" font-size="13" textLength="43.361">parents</text><text x="578.376" y="726.087" fill="#000" font-size="13" textLength="21.69">and</text><text x="600.066" y="726.087" fill="#000" font-size="13"> </text><text x="603.678" y="726.087" fill="#000" font-size="13" textLength="33.249">group</text><text x="578.376" y="742.013" fill="#000" font-size="13" textLength="51.295">emission</text><polygon points="887.949,852.427,897.949,856.427,887.949,860.427,891.949,856.427" fill="#181818" style="stroke:#181818;stroke-width:1;stroke-linejoin:miter;stroke-miterlimit:10;"/><line x1="560.146" y1="856.427" x2="893.949" y2="856.427" style="stroke:#181818;stroke-width:1;"/><text x="567.146" y="811.755" fill="#000" font-size="13" font-weight="700">8</text><text x="578.376" y="771.939" fill="#000" font-size="13" textLength="42.637">generic</text><text x="578.376" y="787.866" fill="#000" font-size="13" textLength="22.388">UID</text><text x="600.765" y="787.866" fill="#000" font-size="13"> </text><text x="604.376" y="787.866" fill="#000" font-size="13">/</text><text x="578.376" y="803.792" fill="#000" font-size="13" textLength="42.65">bounds</text><text x="621.026" y="803.792" fill="#000" font-size="13"> </text><text x="624.638" y="803.792" fill="#000" font-size="13">/</text><text x="578.376" y="819.718" fill="#000" font-size="13" textLength="32.519">reach</text><text x="610.896" y="819.718" fill="#000" font-size="13"> </text><text x="614.507" y="819.718" fill="#000" font-size="13">/</text><text x="578.376" y="835.645" fill="#000" font-size="13" textLength="53.479">coverage</text><text x="578.376" y="851.571" fill="#000" font-size="13">/</text><text x="581.988" y="851.571" fill="#000" font-size="13"> </text><text x="585.6" y="851.571" fill="#000" font-size="13" textLength="35.407">power</text><path d="M883.949,868.427 L944.12,868.427 L944.12,876.354 L934.12,886.354 L883.949,886.354 L883.949,868.427" style="stroke:#000;stroke-width:1.5;" fill="#EEE"/><rect x="883.949" y="868.427" width="191.412" height="260.665" fill="none" style="stroke:#000;stroke-width:1.5;"/><text x="898.949" y="882.497" fill="#000" font-size="13" textLength="15.171" font-weight="700">alt</text><text x="959.12" y="881.486" fill="#000" font-size="11" textLength="100.241" font-weight="700">[Project B enabled]</text><line x1="899.949" y1="981.985" x2="941.949" y2="981.985" style="stroke:#181818;stroke-width:1;"/><line x1="941.949" y1="981.985" x2="941.949" y2="994.985" style="stroke:#181818;stroke-width:1;"/><line x1="900.949" y1="994.985" x2="941.949" y2="994.985" style="stroke:#181818;stroke-width:1;"/><polygon points="910.949,990.985,900.949,994.985,910.949,998.985,906.949,994.985" fill="#181818" style="stroke:#181818;stroke-width:1;stroke-linejoin:miter;stroke-miterlimit:10;"/><text x="906.949" y="945.276" fill="#000" font-size="13" font-weight="700">9</text><text x="918.179" y="913.423" fill="#000" font-size="13" textLength="39.762">update</text><text x="918.179" y="929.35" fill="#000" font-size="13" textLength="46.255">affected</text><text x="918.179" y="945.276" fill="#000" font-size="13" textLength="62.88">candidates</text><text x="918.179" y="961.202" fill="#000" font-size="13" textLength="21.69">and</text><text x="939.869" y="961.202" fill="#000" font-size="13"> </text><text x="943.48" y="961.202" fill="#000" font-size="13" textLength="20.954">fast</text><text x="964.434" y="961.202" fill="#000" font-size="13"> </text><text x="968.046" y="961.202" fill="#000" font-size="13">/</text><text x="918.179" y="977.128" fill="#000" font-size="13" textLength="16.618">tail</text><text x="934.797" y="977.128" fill="#000" font-size="13"> </text><text x="938.409" y="977.128" fill="#000" font-size="13" textLength="34.69">tables</text><line x1="883.949" y1="1003.985" x2="1075.36" y2="1003.985" style="stroke:#000;stroke-width:1;stroke-dasharray:2,2;"/><text x="888.949" y="1017.044" fill="#000" font-size="11" textLength="84.955" font-weight="700">[Existing policy]</text><line x1="899.949" y1="1108.092" x2="941.949" y2="1108.092" style="stroke:#181818;stroke-width:1;"/><line x1="941.949" y1="1108.092" x2="941.949" y2="1121.092" style="stroke:#181818;stroke-width:1;"/><line x1="900.949" y1="1121.092" x2="941.949" y2="1121.092" style="stroke:#181818;stroke-width:1;"/><polygon points="910.949,1117.092,900.949,1121.092,910.949,1125.092,906.949,1121.092" fill="#181818" style="stroke:#181818;stroke-width:1;stroke-linejoin:miter;stroke-miterlimit:10;"/><text x="906.949" y="1071.383" fill="#000" font-size="13" textLength="14.46" font-weight="700">10</text><text x="925.409" y="1039.531" fill="#000" font-size="13" textLength="52.749">compose</text><text x="925.409" y="1055.457" fill="#000" font-size="13" textLength="44.078">existing</text><text x="925.409" y="1071.383" fill="#000" font-size="13" textLength="42.65">capped</text><text x="925.409" y="1087.31" fill="#000" font-size="13" textLength="39.019">source</text><text x="925.409" y="1103.236" fill="#000" font-size="13" textLength="22.388">lists</text><polygon points="739.487,1224.724,729.487,1228.724,739.487,1232.724,735.487,1228.724" fill="#181818" style="stroke:#181818;stroke-width:1;stroke-linejoin:miter;stroke-miterlimit:10;"/><line x1="733.487" y1="1228.724" x2="898.949" y2="1228.724" style="stroke:#181818;stroke-width:1;"/><text x="745.487" y="1192.015" fill="#000" font-size="13" textLength="14.46" font-weight="700">11</text><text x="763.947" y="1160.162" fill="#000" font-size="13" textLength="41.196">publish</text><text x="763.947" y="1176.088" fill="#000" font-size="13" textLength="27.447">CPU</text><text x="763.947" y="1192.015" fill="#000" font-size="13" textLength="39.019">source</text><text x="763.947" y="1207.941" fill="#000" font-size="13" textLength="22.388">UID</text><text x="763.947" y="1223.867" fill="#000" font-size="13" textLength="34.69">tables</text><line x1="728.487" y1="1322.355" x2="770.487" y2="1322.355" style="stroke:#181818;stroke-width:1;"/><line x1="770.487" y1="1322.355" x2="770.487" y2="1335.355" style="stroke:#181818;stroke-width:1;"/><line x1="729.487" y1="1335.355" x2="770.487" y2="1335.355" style="stroke:#181818;stroke-width:1;"/><polygon points="739.487,1331.355,729.487,1335.355,739.487,1339.355,735.487,1335.355" fill="#181818" style="stroke:#181818;stroke-width:1;stroke-linejoin:miter;stroke-miterlimit:10;"/><text x="735.487" y="1285.646" fill="#000" font-size="13" textLength="14.46" font-weight="700">12</text><text x="753.947" y="1253.793" fill="#000" font-size="13" textLength="41.907">resolve</text><text x="753.947" y="1269.72" fill="#000" font-size="13" textLength="28.888">UIDs</text><text x="782.835" y="1269.72" fill="#000" font-size="13"> </text><text x="786.447" y="1269.72" fill="#000" font-size="13" textLength="10.842">to</text><text x="753.947" y="1285.646" fill="#000" font-size="13" textLength="40.46">current</text><text x="753.947" y="1301.572" fill="#000" font-size="13" textLength="33.23">frame</text><text x="753.947" y="1317.499" fill="#000" font-size="13" textLength="40.466">indices</text><polygon points="1138.874,1440.913,1148.874,1444.913,1138.874,1448.913,1142.874,1444.913" fill="#181818" style="stroke:#181818;stroke-width:1;stroke-linejoin:miter;stroke-miterlimit:10;"/><line x1="728.487" y1="1444.913" x2="1144.874" y2="1444.913" style="stroke:#181818;stroke-width:1;"/><text x="735.487" y="1400.24" fill="#000" font-size="13" textLength="14.46" font-weight="700">13</text><text x="753.947" y="1360.425" fill="#000" font-size="13" textLength="41.196">publish</text><text x="753.947" y="1376.351" fill="#000" font-size="13" textLength="52.749">matching</text><text x="753.947" y="1392.277" fill="#000" font-size="13" textLength="40.466">indices</text><text x="794.414" y="1392.277" fill="#000" font-size="13"> </text><text x="798.025" y="1392.277" fill="#000" font-size="13">/</text><text x="753.947" y="1408.204" fill="#000" font-size="13" textLength="69.374">probabilities</text><text x="753.947" y="1424.13" fill="#000" font-size="13" textLength="21.69">and</text><text x="753.947" y="1440.056" fill="#000" font-size="13" textLength="44.065">barriers</text><polygon points="1138.874,1518.618,1148.874,1522.618,1138.874,1526.618,1142.874,1522.618" fill="#181818" style="stroke:#181818;stroke-width:1;stroke-linejoin:miter;stroke-miterlimit:10;"/><line x1="560.146" y1="1522.618" x2="1144.874" y2="1522.618" style="stroke:#181818;stroke-width:1;"/><text x="567.146" y="1493.872" fill="#000" font-size="13" textLength="14.46" font-weight="700">14</text><text x="585.606" y="1469.982" fill="#000" font-size="13" textLength="48.42">dispatch</text><text x="585.606" y="1485.909" fill="#000" font-size="13" textLength="31.789">direct</text><text x="617.396" y="1485.909" fill="#000" font-size="13"> </text><text x="621.007" y="1485.909" fill="#000" font-size="13" textLength="21.69">and</text><text x="585.606" y="1501.835" fill="#000" font-size="13" textLength="41.907">indirect</text><text x="585.606" y="1517.761" fill="#000" font-size="13" textLength="63.578">consumers</text><line x1="1150.874" y1="1648.102" x2="1192.874" y2="1648.102" style="stroke:#181818;stroke-width:1;"/><line x1="1192.874" y1="1648.102" x2="1192.874" y2="1661.102" style="stroke:#181818;stroke-width:1;"/><line x1="1151.874" y1="1661.102" x2="1192.874" y2="1661.102" style="stroke:#181818;stroke-width:1;"/><polygon points="1161.874,1657.102,1151.874,1661.102,1161.874,1665.102,1157.874,1661.102" fill="#181818" style="stroke:#181818;stroke-width:1;stroke-linejoin:miter;stroke-miterlimit:10;"/><text x="1157.874" y="1595.466" fill="#000" font-size="13" textLength="14.46" font-weight="700">15</text><text x="1176.334" y="1547.688" fill="#000" font-size="13" textLength="33.96">select</text><text x="1176.334" y="1563.614" fill="#000" font-size="13" textLength="36.861">parent</text><text x="1176.334" y="1579.54" fill="#000" font-size="13" textLength="25.302">then</text><text x="1176.334" y="1595.466" fill="#000" font-size="13" textLength="41.907">sample</text><text x="1176.334" y="1611.393" fill="#000" font-size="13" textLength="21.677">real</text><text x="1176.334" y="1627.319" fill="#000" font-size="13" textLength="47.677">member</text><text x="1224.011" y="1627.319" fill="#000" font-size="13"> </text><text x="1227.623" y="1627.319" fill="#000" font-size="13">/</text><text x="1176.334" y="1643.245" fill="#000" font-size="13" textLength="28.19">point</text><path d="M662.1,1674.102 L662.1,1731.102 L1217.1,1731.102 L1217.1,1684.102 L1207.1,1674.102 L662.1,1674.102" style="stroke:#181818;stroke-width:0.5;" fill="#FEFFDD"/><path d="M1207.1,1674.102 L1207.1,1684.102 L1217.1,1684.102 L1207.1,1674.102" style="stroke:#181818;stroke-width:0.5;" fill="#FEFFDD"/><text x="769.367" y="1692.171" fill="#000" font-size="13" textLength="297.699">Existing frame slots keep compatible resource data.</text><text x="769.367" y="1708.098" fill="#000" font-size="13" textLength="266.64">Array-order changes refresh index publication.</text><text x="769.367" y="1724.024" fill="#000" font-size="13" textLength="331.627">Retirement waits for actual GPU use, not only CPU tasks.</text></g></svg>