<svg xmlns="http://www.w3.org/2000/svg" xmlns:xlink="http://www.w3.org/1999/xlink" version="1.1" data-diagram-type="ACTIVITY" style="width:858px;height:1289px;background:#FFFFFF;" width="858px" height="1289px" viewBox="0 0 858 1289" zoomAndPan="magnify" preserveAspectRatio="none" contentStyleType="text/css"><?plantuml 1.2026.8?><defs/><g font-family="sans-serif" lengthAdjust="spacing"><g class="title" data-source-line="1"><text x="209.917" y="34.075" fill="#000" font-size="14" textLength="436.44" font-weight="700">D06 - Source-selection boundary and Project A member sampling</text></g><ellipse cx="293.96" cy="63.151" rx="10" ry="10" fill="#222" style="stroke:#222;stroke-width:1;"/><path d="M473.037,89.576 L473.037,106.502 L453.037,110.502 L473.037,114.502 L473.037,131.428 A0,0 0 0 0 473.037,131.428 L837.274,131.428 A0,0 0 0 0 837.274,131.428 L837.274,99.576 L827.274,89.576 L473.037,89.576 A0,0 0 0 0 473.037,89.576" style="stroke:#181818;stroke-width:0.5;" fill="#FEFFDD"/><path d="M827.274,89.576 L827.274,99.576 L837.274,99.576 L827.274,89.576" style="stroke:#181818;stroke-width:0.5;" fill="#FEFFDD"/><text x="479.037" y="107.646" fill="#000" font-size="13" textLength="343.237">Existing policy or independent Project B supplies this result.</text><text x="479.037" y="123.572" fill="#000" font-size="13" textLength="257.251">B includes its branch probability in p_source.</text><rect x="134.883" y="93.151" width="318.154" height="34.701" fill="#F1F1F1" style="stroke:#181818;stroke-width:0.5;" rx="12.5" ry="12.5"/><text x="144.883" y="115.216" fill="#000" font-size="12" textLength="298.154">Source selector returns current index, p_source and slot</text><rect x="218.268" y="200.166" width="151.385" height="34.701" fill="#F1F1F1" style="stroke:#181818;stroke-width:0.5;" rx="12.5" ry="12.5"/><text x="228.268" y="222.231" fill="#000" font-size="12" textLength="131.385">Return zero without retry</text><ellipse cx="293.96" cy="274.017" rx="11" ry="11" fill="none" style="stroke:#222;stroke-width:1;"/><ellipse cx="293.96" cy="274.017" rx="6" ry="6" fill="#222" style="stroke:#222;stroke-width:1;"/><polygon points="225.785,151.428,362.135,151.428,374.135,163.428,362.135,175.428,225.785,175.428,213.785,163.428,225.785,151.428" fill="#F1F1F1" style="stroke:#181818;stroke-width:0.5;stroke-linejoin:miter;stroke-miterlimit:10;"/><text x="297.96" y="186.487" fill="#000" font-size="11" textLength="17.118">yes</text><text x="225.785" y="167.749" fill="#000" font-size="11" textLength="136.351">Valid null / empty selection?</text><rect x="187.898" y="375.755" width="212.123" height="34.701" fill="#F1F1F1" style="stroke:#181818;stroke-width:0.5;" rx="12.5" ry="12.5"/><text x="197.898" y="397.819" fill="#000" font-size="12" textLength="192.123">Report publication/coherence defect</text><ellipse cx="293.96" cy="449.605" rx="11" ry="11" fill="none" style="stroke:#222;stroke-width:1;"/><ellipse cx="293.96" cy="449.605" rx="6" ry="6" fill="#222" style="stroke:#222;stroke-width:1;"/><polygon points="176.867,327.017,411.052,327.017,423.052,339.017,411.052,351.017,176.867,351.017,164.867,339.017,176.867,327.017" fill="#F1F1F1" style="stroke:#181818;stroke-width:0.5;stroke-linejoin:miter;stroke-miterlimit:10;"/><text x="297.96" y="362.076" fill="#000" font-size="11" textLength="12.235">no</text><text x="176.867" y="343.338" fill="#000" font-size="11" textLength="234.185">Published source index matches accepted UID?</text><text x="423.052" y="336.6" fill="#000" font-size="11" textLength="17.118">yes</text><polygon points="217.524,502.605,370.396,502.605,382.396,514.605,370.396,526.605,217.524,526.605,205.524,514.605,217.524,502.605" fill="#F1F1F1" style="stroke:#181818;stroke-width:0.5;stroke-linejoin:miter;stroke-miterlimit:10;"/><text x="217.524" y="518.927" fill="#000" font-size="11" textLength="152.872">DTAL group / singleton parent?</text><text x="188.406" y="512.188" fill="#000" font-size="11" textLength="17.118">yes</text><text x="382.396" y="512.188" fill="#000" font-size="11" textLength="75.813">ordinary source</text><rect x="32.676" y="536.605" width="246.119" height="34.701" fill="#F1F1F1" style="stroke:#181818;stroke-width:0.5;" rx="12.5" ry="12.5"/><text x="42.676" y="558.67" fill="#000" font-size="12" textLength="226.119">Select real patch using member alias table</text><rect x="61.029" y="591.307" width="189.412" height="34.701" fill="#F1F1F1" style="stroke:#181818;stroke-width:0.5;" rx="12.5" ry="12.5"/><text x="71.029" y="613.371" fill="#000" font-size="12" textLength="169.412">Return p_member (singleton: 1)</text><rect x="21.007" y="646.008" width="269.457" height="34.701" fill="#F1F1F1" style="stroke:#181818;stroke-width:0.5;" rx="12.5" ry="12.5"/><text x="31.007" y="668.072" fill="#000" font-size="12" textLength="249.457">Sample full-domain point and actual UV / mask</text><rect x="16" y="700.709" width="279.471" height="34.701" fill="#F1F1F1" style="stroke:#181818;stroke-width:0.5;" rx="12.5" ry="12.5"/><text x="26" y="722.773" fill="#000" font-size="12" textLength="259.471">Compute actual p_area (uniform triangle: 1/area)</text><rect x="80.043" y="804.148" width="151.385" height="34.701" fill="#F1F1F1" style="stroke:#181818;stroke-width:0.5;" rx="12.5" ry="12.5"/><text x="90.043" y="826.213" fill="#000" font-size="12" textLength="131.385">Return zero without retry</text><ellipse cx="155.735" cy="877.999" rx="11" ry="11" fill="none" style="stroke:#222;stroke-width:1;"/><ellipse cx="155.735" cy="877.999" rx="6" ry="6" fill="#222" style="stroke:#222;stroke-width:1;"/><polygon points="67.075,755.41,244.396,755.41,256.396,767.41,244.396,779.41,67.075,779.41,55.075,767.41,67.075,755.41" fill="#F1F1F1" style="stroke:#181818;stroke-width:0.5;stroke-linejoin:miter;stroke-miterlimit:10;"/><text x="159.735" y="790.469" fill="#000" font-size="11" textLength="17.118">yes</text><text x="67.075" y="771.731" fill="#000" font-size="11" textLength="177.321">Outside standard-world point reach?</text><rect x="45.856" y="930.999" width="219.758" height="34.701" fill="#F1F1F1" style="stroke:#181818;stroke-width:0.5;" rx="12.5" ry="12.5"/><text x="55.856" y="953.063" fill="#000" font-size="12" textLength="199.758">dw = emitter geometry factor / p_area</text><rect x="315.471" y="536.605" width="233.428" height="34.701" fill="#F1F1F1" style="stroke:#181818;stroke-width:0.5;" rx="12.5" ry="12.5"/><text x="325.471" y="558.67" fill="#000" font-size="12" textLength="213.428">Use existing source-type point estimator</text><rect x="383.331" y="591.307" width="97.707" height="34.701" fill="#F1F1F1" style="stroke:#181818;stroke-width:0.5;" rx="12.5" ry="12.5"/><text x="393.331" y="613.371" fill="#000" font-size="12" textLength="77.707">p_member = 1</text><polygon points="293.96,971.7,305.96,983.7,293.96,995.7,281.96,983.7,293.96,971.7" fill="#F1F1F1" style="stroke:#181818;stroke-width:0.5;stroke-linejoin:miter;stroke-miterlimit:10;"/><rect x="152.232" y="1015.7" width="283.455" height="34.701" fill="#F1F1F1" style="stroke:#181818;stroke-width:0.5;" rx="12.5" ry="12.5"/><text x="162.232" y="1037.764" fill="#000" font-size="12" textLength="263.455">Trace actual visibility when sample can contribute</text><rect x="149.569" y="1070.401" width="288.781" height="34.701" fill="#F1F1F1" style="stroke:#181818;stroke-width:0.5;" rx="12.5" ry="12.5"/><text x="159.569" y="1092.466" fill="#000" font-size="12" textLength="268.781">Accumulate history only for valid matching fast slot</text><rect x="181.242" y="1125.102" width="225.436" height="34.701" fill="#F1F1F1" style="stroke:#181818;stroke-width:0.5;" rx="12.5" ry="12.5"/><text x="191.242" y="1147.167" fill="#000" font-size="12" textLength="205.436">Shade with 1 / (p_source * p_member)</text><path d="M427.012,1169.803 L427.012,1194.693 L407.012,1198.693 L427.012,1202.693 L427.012,1227.582 A0,0 0 0 0 427.012,1227.582 L728.381,1227.582 A0,0 0 0 0 728.381,1227.582 L728.381,1179.803 L718.381,1169.803 L427.012,1169.803 A0,0 0 0 0 427.012,1169.803" style="stroke:#181818;stroke-width:0.5;" fill="#FEFFDD"/><path d="M718.381,1169.803 L718.381,1179.803 L728.381,1179.803 L718.381,1169.803" style="stroke:#181818;stroke-width:0.5;" fill="#FEFFDD"/><text x="433.012" y="1187.873" fill="#000" font-size="13" textLength="197.266">No representative energy transfer.</text><text x="433.012" y="1203.8" fill="#000" font-size="13" textLength="280.37">Area density is compensated exactly once in dw.</text><text x="433.012" y="1219.726" fill="#000" font-size="13" textLength="240.608">No retry until the mask becomes nonzero.</text><rect x="180.908" y="1181.342" width="226.104" height="34.701" fill="#F1F1F1" style="stroke:#181818;stroke-width:0.5;" rx="12.5" ry="12.5"/><text x="190.908" y="1203.407" fill="#000" font-size="12" textLength="206.104">Include zero outcomes in the estimator</text><ellipse cx="293.96" cy="1258.582" rx="11" ry="11" fill="none" style="stroke:#222;stroke-width:1;"/><ellipse cx="293.96" cy="1258.582" rx="6" ry="6" fill="#222" style="stroke:#222;stroke-width:1;"/><line x1="293.96" y1="73.151" x2="293.96" y2="93.151" style="stroke:#181818;stroke-width:1;"/><polygon points="289.96,83.151,293.96,93.151,297.96,83.151,293.96,87.151" fill="#181818" style="stroke:#181818;stroke-width:1;stroke-linejoin:miter;stroke-miterlimit:10;"/><line x1="293.96" y1="234.867" x2="293.96" y2="263.017" style="stroke:#181818;stroke-width:1;"/><polygon points="289.96,253.017,293.96,263.017,297.96,253.017,293.96,257.017" fill="#181818" style="stroke:#181818;stroke-width:1;stroke-linejoin:miter;stroke-miterlimit:10;"/><line x1="293.96" y1="175.428" x2="293.96" y2="200.166" style="stroke:#181818;stroke-width:1;"/><polygon points="289.96,190.166,293.96,200.166,297.96,190.166,293.96,194.166" fill="#181818" style="stroke:#181818;stroke-width:1;stroke-linejoin:miter;stroke-miterlimit:10;"/><line x1="374.135" y1="163.428" x2="386.135" y2="163.428" style="stroke:#181818;stroke-width:1;"/><polygon points="382.135,233.017,386.135,243.017,390.135,233.017,386.135,237.017" fill="#181818" style="stroke:#181818;stroke-width:1;stroke-linejoin:miter;stroke-miterlimit:10;"/><line x1="386.135" y1="163.428" x2="386.135" y2="307.017" style="stroke:#181818;stroke-width:1;"/><line x1="386.135" y1="307.017" x2="293.96" y2="307.017" style="stroke:#181818;stroke-width:1;"/><line x1="293.96" y1="307.017" x2="293.96" y2="327.017" style="stroke:#181818;stroke-width:1;"/><polygon points="289.96,317.017,293.96,327.017,297.96,317.017,293.96,321.017" fill="#181818" style="stroke:#181818;stroke-width:1;stroke-linejoin:miter;stroke-miterlimit:10;"/><line x1="293.96" y1="127.853" x2="293.96" y2="151.428" style="stroke:#181818;stroke-width:1;"/><polygon points="289.96,141.428,293.96,151.428,297.96,141.428,293.96,145.428" fill="#181818" style="stroke:#181818;stroke-width:1;stroke-linejoin:miter;stroke-miterlimit:10;"/><line x1="293.96" y1="410.456" x2="293.96" y2="438.605" style="stroke:#181818;stroke-width:1;"/><polygon points="289.96,428.605,293.96,438.605,297.96,428.605,293.96,432.605" fill="#181818" style="stroke:#181818;stroke-width:1;stroke-linejoin:miter;stroke-miterlimit:10;"/><line x1="293.96" y1="351.017" x2="293.96" y2="375.755" style="stroke:#181818;stroke-width:1;"/><polygon points="289.96,365.755,293.96,375.755,297.96,365.755,293.96,369.755" fill="#181818" style="stroke:#181818;stroke-width:1;stroke-linejoin:miter;stroke-miterlimit:10;"/><line x1="423.052" y1="339.017" x2="435.052" y2="339.017" style="stroke:#181818;stroke-width:1;"/><polygon points="431.052,408.605,435.052,418.605,439.052,408.605,435.052,412.605" fill="#181818" style="stroke:#181818;stroke-width:1;stroke-linejoin:miter;stroke-miterlimit:10;"/><line x1="435.052" y1="339.017" x2="435.052" y2="482.605" style="stroke:#181818;stroke-width:1;"/><line x1="435.052" y1="482.605" x2="293.96" y2="482.605" style="stroke:#181818;stroke-width:1;"/><line x1="293.96" y1="482.605" x2="293.96" y2="502.605" style="stroke:#181818;stroke-width:1;"/><polygon points="289.96,492.605,293.96,502.605,297.96,492.605,293.96,496.605" fill="#181818" style="stroke:#181818;stroke-width:1;stroke-linejoin:miter;stroke-miterlimit:10;"/><line x1="155.735" y1="571.307" x2="155.735" y2="591.307" style="stroke:#181818;stroke-width:1;"/><polygon points="151.735,581.307,155.735,591.307,159.735,581.307,155.735,585.307" fill="#181818" style="stroke:#181818;stroke-width:1;stroke-linejoin:miter;stroke-miterlimit:10;"/><line x1="155.735" y1="626.008" x2="155.735" y2="646.008" style="stroke:#181818;stroke-width:1;"/><polygon points="151.735,636.008,155.735,646.008,159.735,636.008,155.735,640.008" fill="#181818" style="stroke:#181818;stroke-width:1;stroke-linejoin:miter;stroke-miterlimit:10;"/><line x1="155.735" y1="680.709" x2="155.735" y2="700.709" style="stroke:#181818;stroke-width:1;"/><polygon points="151.735,690.709,155.735,700.709,159.735,690.709,155.735,694.709" fill="#181818" style="stroke:#181818;stroke-width:1;stroke-linejoin:miter;stroke-miterlimit:10;"/><line x1="155.735" y1="838.849" x2="155.735" y2="866.999" style="stroke:#181818;stroke-width:1;"/><polygon points="151.735,856.999,155.735,866.999,159.735,856.999,155.735,860.999" fill="#181818" style="stroke:#181818;stroke-width:1;stroke-linejoin:miter;stroke-miterlimit:10;"/><line x1="155.735" y1="779.41" x2="155.735" y2="804.148" style="stroke:#181818;stroke-width:1;"/><polygon points="151.735,794.148,155.735,804.148,159.735,794.148,155.735,798.148" fill="#181818" style="stroke:#181818;stroke-width:1;stroke-linejoin:miter;stroke-miterlimit:10;"/><line x1="256.396" y1="767.41" x2="268.396" y2="767.41" style="stroke:#181818;stroke-width:1;"/><polygon points="264.396,836.999,268.396,846.999,272.396,836.999,268.396,840.999" fill="#181818" style="stroke:#181818;stroke-width:1;stroke-linejoin:miter;stroke-miterlimit:10;"/><line x1="268.396" y1="767.41" x2="268.396" y2="910.999" style="stroke:#181818;stroke-width:1;"/><line x1="268.396" y1="910.999" x2="155.735" y2="910.999" style="stroke:#181818;stroke-width:1;"/><line x1="155.735" y1="910.999" x2="155.735" y2="930.999" style="stroke:#181818;stroke-width:1;"/><polygon points="151.735,920.999,155.735,930.999,159.735,920.999,155.735,924.999" fill="#181818" style="stroke:#181818;stroke-width:1;stroke-linejoin:miter;stroke-miterlimit:10;"/><line x1="155.735" y1="735.41" x2="155.735" y2="755.41" style="stroke:#181818;stroke-width:1;"/><polygon points="151.735,745.41,155.735,755.41,159.735,745.41,155.735,749.41" fill="#181818" style="stroke:#181818;stroke-width:1;stroke-linejoin:miter;stroke-miterlimit:10;"/><line x1="432.185" y1="571.307" x2="432.185" y2="591.307" style="stroke:#181818;stroke-width:1;"/><polygon points="428.185,581.307,432.185,591.307,436.185,581.307,432.185,585.307" fill="#181818" style="stroke:#181818;stroke-width:1;stroke-linejoin:miter;stroke-miterlimit:10;"/><line x1="205.524" y1="514.605" x2="155.735" y2="514.605" style="stroke:#181818;stroke-width:1;"/><line x1="155.735" y1="514.605" x2="155.735" y2="536.605" style="stroke:#181818;stroke-width:1;"/><polygon points="151.735,526.605,155.735,536.605,159.735,526.605,155.735,530.605" fill="#181818" style="stroke:#181818;stroke-width:1;stroke-linejoin:miter;stroke-miterlimit:10;"/><line x1="382.396" y1="514.605" x2="432.185" y2="514.605" style="stroke:#181818;stroke-width:1;"/><line x1="432.185" y1="514.605" x2="432.185" y2="536.605" style="stroke:#181818;stroke-width:1;"/><polygon points="428.185,526.605,432.185,536.605,436.185,526.605,432.185,530.605" fill="#181818" style="stroke:#181818;stroke-width:1;stroke-linejoin:miter;stroke-miterlimit:10;"/><line x1="155.735" y1="965.7" x2="155.735" y2="983.7" style="stroke:#181818;stroke-width:1;"/><line x1="155.735" y1="983.7" x2="281.96" y2="983.7" style="stroke:#181818;stroke-width:1;"/><polygon points="271.96,979.7,281.96,983.7,271.96,987.7,275.96,983.7" fill="#181818" style="stroke:#181818;stroke-width:1;stroke-linejoin:miter;stroke-miterlimit:10;"/><line x1="432.185" y1="626.008" x2="432.185" y2="983.7" style="stroke:#181818;stroke-width:1;"/><line x1="432.185" y1="983.7" x2="305.96" y2="983.7" style="stroke:#181818;stroke-width:1;"/><polygon points="315.96,979.7,305.96,983.7,315.96,987.7,311.96,983.7" fill="#181818" style="stroke:#181818;stroke-width:1;stroke-linejoin:miter;stroke-miterlimit:10;"/><line x1="293.96" y1="995.7" x2="293.96" y2="1015.7" style="stroke:#181818;stroke-width:1;"/><polygon points="289.96,1005.7,293.96,1015.7,297.96,1005.7,293.96,1009.7" fill="#181818" style="stroke:#181818;stroke-width:1;stroke-linejoin:miter;stroke-miterlimit:10;"/><line x1="293.96" y1="1050.401" x2="293.96" y2="1070.401" style="stroke:#181818;stroke-width:1;"/><polygon points="289.96,1060.401,293.96,1070.401,297.96,1060.401,293.96,1064.401" fill="#181818" style="stroke:#181818;stroke-width:1;stroke-linejoin:miter;stroke-miterlimit:10;"/><line x1="293.96" y1="1105.102" x2="293.96" y2="1125.102" style="stroke:#181818;stroke-width:1;"/><polygon points="289.96,1115.102,293.96,1125.102,297.96,1115.102,293.96,1119.102" fill="#181818" style="stroke:#181818;stroke-width:1;stroke-linejoin:miter;stroke-miterlimit:10;"/><line x1="293.96" y1="1159.803" x2="293.96" y2="1181.342" style="stroke:#181818;stroke-width:1;"/><polygon points="289.96,1171.342,293.96,1181.342,297.96,1171.342,293.96,1175.342" fill="#181818" style="stroke:#181818;stroke-width:1;stroke-linejoin:miter;stroke-miterlimit:10;"/><line x1="293.96" y1="1216.043" x2="293.96" y2="1247.582" style="stroke:#181818;stroke-width:1;"/><polygon points="289.96,1237.582,293.96,1247.582,297.96,1237.582,293.96,1241.582" fill="#181818" style="stroke:#181818;stroke-width:1;stroke-linejoin:miter;stroke-miterlimit:10;"/></g></svg>